name analog
datacolumns 19
datarows 63
range 0.498 0.529
endheader
time	ground_force_vx	ground_force_vy	ground_force_vz	ground_force_px	ground_force_py	ground_force_pz	l_ground_force_vx	l_ground_force_vy	l_ground_force_vz	l_ground_force_px	l_ground_force_py	l_ground_force_pz	ground_torque_x	ground_torque_y	ground_torque_z	l_ground_torque_x	l_ground_torque_y	l_ground_torque_z
0.498	-0.0	-0.0	-0.0	-0.0	-0.0	-0.0	2.347841262817383	11.992892265319824	-784.1434936523438	-0.0	-0.0	-0.0	-0.0	-0.0	-0.0	231400.0	788.166015625	139.20553588867188
0.4985	-0.0	-0.0	-0.0	-0.0	-0.0	-0.0	1.685504913330078	11.462889671325684	-784.0075073242188	-0.0	-0.0	-0.0	-0.0	-0.0	-0.0	231122.875	1320.73779296875	152.43051147460938
0.499	-0.0	-0.0	-0.0	-0.0	-0.0	-0.0	0.2756762504577636	10.835061073303224	-780.853271484375	-0.0	-0.0	-0.0	-0.0	-0.0	-0.0	230266.640625	1428.9388427734375	-231.1727752685547
0.4995	-0.0	-0.0	-0.0	-0.0	-0.0	-0.0	-1.51056170463562	10.491202354431152	-781.5144653320312	-0.0	-0.0	-0.0	-0.0	-0.0	-0.0	230338.0625	1737.5162353515625	-727.19482421875
0.5	-0.0	-0.0	-0.0	-0.0	-0.0	-0.0	-2.977744579315185	10.304946899414062	-780.505126953125	-0.0	-0.0	-0.0	-0.0	-0.0	-0.0	230363.703125	2412.35400390625	-1001.6536865234376
0.5005000000000001	-0.0	-0.0	-0.0	-0.0	-0.0	-0.0	-4.308256149291992	9.83250904083252	-780.7789306640625	-0.0	-0.0	-0.0	-0.0	-0.0	-0.0	230095.71875	2926.873046875	-1328.999267578125
0.501	-0.0	-0.0	-0.0	-0.0	-0.0	-0.0	-4.800063133239746	10.364130973815918	-783.0708618164062	-0.0	-0.0	-0.0	-0.0	-0.0	-0.0	230390.90625	3223.901611328125	-1652.2562255859375
0.5015000000000001	-0.0	-0.0	-0.0	-0.0	-0.0	-0.0	-5.105071544647217	10.118318557739258	-783.534423828125	-0.0	-0.0	-0.0	-0.0	-0.0	-0.0	230859.71875	3465.234619140625	-1602.918701171875
0.502	-0.0	-0.0	-0.0	-0.0	-0.0	-0.0	-5.3128981590271	9.990056991577148	-786.2127075195312	-0.0	-0.0	-0.0	-0.0	-0.0	-0.0	231323.59375	3473.601318359375	-1672.5318603515625
0.5025000000000001	-0.0	-0.0	-0.0	-0.0	-0.0	-0.0	-4.731030464172363	10.784989356994627	-786.8311767578125	-0.0	-0.0	-0.0	-0.0	-0.0	-0.0	231265.015625	3596.681640625	-1526.5811767578125
0.503	-0.0	-0.0	-0.0	-0.0	-0.0	-0.0	-4.879093170166016	11.266105651855469	-788.2685546875	-0.0	-0.0	-0.0	-0.0	-0.0	-0.0	231701.984375	3543.5380859375	-1510.1939697265625
0.5035000000000001	-0.0	-0.0	-0.0	-0.0	-0.0	-0.0	-5.362117767333984	11.972530364990234	-789.2379760742188	-0.0	-0.0	-0.0	-0.0	-0.0	-0.0	231575.4375	3976.019775390625	-1454.310546875
0.504	-0.0	-0.0	-0.0	-0.0	-0.0	-0.0	-5.381701469421387	12.080387115478516	-787.3757934570312	-0.0	-0.0	-0.0	-0.0	-0.0	-0.0	231120.84375	4588.4287109375	-1520.2362060546875
0.5045000000000001	-0.0	-0.0	-0.0	-0.0	-0.0	-0.0	-5.204197406768799	12.247610092163086	-784.892822265625	-0.0	-0.0	-0.0	-0.0	-0.0	-0.0	230684.3125	4778.5576171875	-1474.0172119140625
0.505	-0.0	-0.0	-0.0	-0.0	-0.0	-0.0	-5.766201019287109	12.246994018554688	-782.837158203125	-0.0	-0.0	-0.0	-0.0	-0.0	-0.0	229766.078125	5438.42724609375	-1606.1756591796875
0.5055000000000001	-0.0	-0.0	-0.0	-0.0	-0.0	-0.0	-5.618743419647217	11.91348361968994	-781.440673828125	-0.0	-0.0	-0.0	-0.0	-0.0	-0.0	228785.90625	5595.22119140625	-1480.8321533203125
0.506	-0.0	-0.0	-0.0	-0.0	-0.0	-0.0	-5.973672866821289	11.501764297485352	-780.0047607421875	-0.0	-0.0	-0.0	-0.0	-0.0	-0.0	227854.671875	6124.12890625	-1682.1287841796875
0.5065000000000001	-0.0	-0.0	-0.0	-0.0	-0.0	-0.0	-5.786307334899902	12.246686935424805	-776.3944702148438	-0.0	-0.0	-0.0	-0.0	-0.0	-0.0	227260.5	6327.77001953125	-1530.6788330078125
0.507	-0.0	-0.0	-0.0	-0.0	-0.0	-0.0	-5.9537129402160645	12.19843864440918	-775.6163330078125	-0.0	-0.0	-0.0	-0.0	-0.0	-0.0	226513.96875	7067.91357421875	-1645.451171875
0.5075000000000001	-0.0	-0.0	-0.0	-0.0	-0.0	-0.0	-6.288337707519531	12.031916618347168	-775.3461303710938	-0.0	-0.0	-0.0	-0.0	-0.0	-0.0	225768.46875	7418.25	-1501.5517578125
0.508	-0.0	-0.0	-0.0	-0.0	-0.0	-0.0	-7.370460987091064	11.824995040893556	-774.1090698242188	-0.0	-0.0	-0.0	-0.0	-0.0	-0.0	225426.375	8114.35595703125	-1574.4324951171875
0.5085000000000001	-0.0	-0.0	-0.0	-0.0	-0.0	-0.0	-7.520030498504639	10.853419303894045	-774.5787963867188	-0.0	-0.0	-0.0	-0.0	-0.0	-0.0	225295.359375	8571.607421875	-1782.433837890625
0.509	-0.0	-0.0	-0.0	-0.0	-0.0	-0.0	-9.007577896118164	9.423213005065918	-776.3923950195312	-0.0	-0.0	-0.0	-0.0	-0.0	-0.0	225428.90625	9308.75	-2070.232421875
0.5095000000000001	-0.0	-0.0	-0.0	-0.0	-0.0	-0.0	-10.051501274108888	8.903636932373047	-779.534423828125	-0.0	-0.0	-0.0	-0.0	-0.0	-0.0	225723.96875	9569.4736328125	-2238.779541015625
0.51	-0.0	-0.0	-0.0	-0.0	-0.0	-0.0	-9.601348876953123	8.910243034362793	-780.6624755859375	-0.0	-0.0	-0.0	-0.0	-0.0	-0.0	226206.640625	9672.9970703125	-2259.0322265625
0.5105000000000001	-0.0	-0.0	-0.0	-0.0	-0.0	-0.0	-9.88395881652832	9.09713363647461	-781.9776611328125	-0.0	-0.0	-0.0	-0.0	-0.0	-0.0	226006.765625	10232.6513671875	-2143.98388671875
0.511	-0.0	-0.0	-0.0	-0.0	-0.0	-0.0	-10.197236061096191	8.941113471984863	-781.0521240234375	-0.0	-0.0	-0.0	-0.0	-0.0	-0.0	225672.515625	10577.693359375	-2348.4404296875
0.5115000000000001	-0.0	-0.0	-0.0	-0.0	-0.0	-0.0	-10.300846099853516	9.086784362792969	-780.1275024414062	-0.0	-0.0	-0.0	-0.0	-0.0	-0.0	225163.125	11043.9482421875	-2420.08984375
0.512	-0.0	-0.0	-0.0	-0.0	-0.0	-0.0	-10.734004974365234	9.237387657165527	-778.341064453125	-0.0	-0.0	-0.0	-0.0	-0.0	-0.0	224252.53125	11327.5791015625	-2559.883544921875
0.5125	-0.0	-0.0	-0.0	-0.0	-0.0	-0.0	-10.666213035583496	8.95173168182373	-775.8560791015625	-0.0	-0.0	-0.0	-0.0	-0.0	-0.0	223598.65625	11949.94140625	-2500.5888671875
0.513	-0.0	-0.0	-0.0	-0.0	-0.0	-0.0	-11.015368461608888	8.73339557647705	-774.335693359375	-0.0	-0.0	-0.0	-0.0	-0.0	-0.0	222355.34375	11971.3779296875	-2602.010986328125
0.5135	-0.0	-0.0	-0.0	-0.0	-0.0	-0.0	-11.135420799255373	8.302238464355469	-771.27587890625	-0.0	-0.0	-0.0	-0.0	-0.0	-0.0	221658.6875	12508.2119140625	-2459.39794921875
0.514	-0.0	-0.0	-0.0	-0.0	-0.0	-0.0	-10.822715759277344	8.161332130432129	-769.2225952148438	-0.0	-0.0	-0.0	-0.0	-0.0	-0.0	220278.71875	12976.54296875	-2364.618408203125
0.5145	-0.0	-0.0	-0.0	-0.0	-0.0	-0.0	-11.156359672546388	6.609676361083984	-765.9969482421875	-0.0	-0.0	-0.0	-0.0	-0.0	-0.0	218793.640625	13255.0869140625	-2304.564208984375
0.515	-0.0	-0.0	-0.0	-0.0	-0.0	-0.0	-11.511127471923828	6.027055263519287	-762.030517578125	-0.0	-0.0	-0.0	-0.0	-0.0	-0.0	217280.984375	13911.62890625	-2271.793701171875
0.5155	-0.0	-0.0	-0.0	-0.0	-0.0	-0.0	-11.798534393310549	4.889575958251953	-758.2732543945312	-0.0	-0.0	-0.0	-0.0	-0.0	-0.0	215524.53125	14264.7646484375	-2287.7109375
0.516	-0.0	-0.0	-0.0	-0.0	-0.0	-0.0	-11.621112823486328	4.317107677459717	-752.3674926757812	-0.0	-0.0	-0.0	-0.0	-0.0	-0.0	214223.78125	14782.6083984375	-2198.728515625
0.5165	-0.0	-0.0	-0.0	-0.0	-0.0	-0.0	-11.123861312866213	3.455238103866577	-749.4061889648438	-0.0	-0.0	-0.0	-0.0	-0.0	-0.0	212793.125	15253.5771484375	-1942.378662109375
0.517	-0.0	-0.0	-0.0	-0.0	-0.0	-0.0	-10.145360946655272	2.7057831287384038	-746.0847778320312	-0.0	-0.0	-0.0	-0.0	-0.0	-0.0	211725.953125	15539.431640625	-1500.541259765625
0.5175	-0.0	-0.0	-0.0	-0.0	-0.0	-0.0	-9.013795852661133	2.33937931060791	-742.9096069335938	-0.0	-0.0	-0.0	-0.0	-0.0	-0.0	210283.609375	15774.140625	-1028.8411865234375
0.518	-0.0	-0.0	-0.0	-0.0	-0.0	-0.0	-8.62862491607666	2.317946195602417	-739.6311645507812	-0.0	-0.0	-0.0	-0.0	-0.0	-0.0	209309.859375	16166.3740234375	-713.8605346679688
0.5185	-0.0	-0.0	-0.0	-0.0	-0.0	-0.0	-8.650152206420898	1.3248252868652344	-741.3411865234375	-0.0	-0.0	-0.0	-0.0	-0.0	-0.0	208672.09375	16528.890625	-728.6631469726562
0.519	-0.0	-0.0	-0.0	-0.0	-0.0	-0.0	-10.12393283843994	0.8955473303794861	-742.2534790039062	-0.0	-0.0	-0.0	-0.0	-0.0	-0.0	209398.296875	16920.17578125	-1171.65771484375
0.5195	-0.0	-0.0	-0.0	-0.0	-0.0	-0.0	-11.23344612121582	0.1875365823507309	-747.6244506835938	-0.0	-0.0	-0.0	-0.0	-0.0	-0.0	210208.09375	17274.615234375	-1405.81005859375
0.52	-0.0	-0.0	-0.0	-0.0	-0.0	-0.0	-11.121784210205078	1.1044597625732422	-751.068359375	-0.0	-0.0	-0.0	-0.0	-0.0	-0.0	211249.515625	17478.4296875	-1617.1243896484375
0.5205	-0.0	-0.0	-0.0	-0.0	-0.0	-0.0	-11.28894329071045	2.2744481563568115	-754.868408203125	-0.0	-0.0	-0.0	-0.0	-0.0	-0.0	212516.515625	17586.4609375	-1520.317138671875
0.521	-0.0	-0.0	-0.0	-0.0	-0.0	-0.0	-10.589714050292969	3.1905758380889893	-758.2703857421875	-0.0	-0.0	-0.0	-0.0	-0.0	-0.0	213367.34375	17553.046875	-1419.516357421875
0.5215	-0.0	-0.0	-0.0	-0.0	-0.0	-0.0	-10.6342134475708	3.6984167098999023	-761.9360961914062	-0.0	-0.0	-0.0	-0.0	-0.0	-0.0	214191.6875	17849.78515625	-1567.7015380859375
0.522	-0.0	-0.0	-0.0	-0.0	-0.0	-0.0	-10.09080982208252	3.941459655761719	-765.6019897460938	-0.0	-0.0	-0.0	-0.0	-0.0	-0.0	215237.046875	18055.224609375	-1474.573486328125
0.5225	-0.0	-0.0	-0.0	-0.0	-0.0	-0.0	-10.02431869506836	3.643383502960205	-765.7772216796875	-0.0	-0.0	-0.0	-0.0	-0.0	-0.0	215633.046875	18211.765625	-1552.4610595703125
0.523	-0.0	-0.0	-0.0	-0.0	-0.0	-0.0	-9.980341911315918	3.0467209815979004	-769.1370239257812	-0.0	-0.0	-0.0	-0.0	-0.0	-0.0	215858.515625	18592.96875	-1508.2244873046875
0.5235	-0.0	-0.0	-0.0	-0.0	-0.0	-0.0	-9.858118057250977	1.7440900802612305	-770.272705078125	-0.0	-0.0	-0.0	-0.0	-0.0	-0.0	215931.34375	18556.513671875	-1504.77880859375
0.524	-0.0	-0.0	-0.0	-0.0	-0.0	-0.0	-9.437088966369627	0.64065021276474	-770.3170776367188	-0.0	-0.0	-0.0	-0.0	-0.0	-0.0	216387.5625	18616.685546875	-1293.386962890625
0.5245	-0.0	-0.0	-0.0	-0.0	-0.0	-0.0	-8.737223625183105	-0.1654068231582641	-773.1487426757812	-0.0	-0.0	-0.0	-0.0	-0.0	-0.0	216426.703125	18699.595703125	-1022.3811645507812
0.525	-0.0	-0.0	-0.0	-0.0	-0.0	-0.0	-7.087416648864746	-0.5073823928833008	-773.4599609375	-0.0	-0.0	-0.0	-0.0	-0.0	-0.0	216594.703125	18732.8046875	-669.1376953125
0.5255	-0.0	-0.0	-0.0	-0.0	-0.0	-0.0	-6.264422416687012	-0.6182518005371094	-775.9407348632812	-0.0	-0.0	-0.0	-0.0	-0.0	-0.0	216749.984375	18647.763671875	-349.19696044921875
0.526	-0.0	-0.0	-0.0	-0.0	-0.0	-0.0	-3.994356632232666	-0.8718815445899963	-776.2891235351562	-0.0	-0.0	-0.0	-0.0	-0.0	-0.0	217177.15625	18968.76171875	155.8863525390625
0.5265	-0.0	-0.0	-0.0	-0.0	-0.0	-0.0	-2.7957253456115723	-0.8832168579101562	-777.3014526367188	-0.0	-0.0	-0.0	-0.0	-0.0	-0.0	217855.609375	19042.69140625	494.4366760253906
0.527	-0.0	-0.0	-0.0	-0.0	-0.0	-0.0	-1.708405375480652	-1.44446861743927	-780.3538818359375	-0.0	-0.0	-0.0	-0.0	-0.0	-0.0	218267.84375	18865.234375	839.5309448242188
0.5275	-0.0	-0.0	-0.0	-0.0	-0.0	-0.0	-1.0070908069610596	-1.6666747331619265	-782.8432006835938	-0.0	-0.0	-0.0	-0.0	-0.0	-0.0	219097.328125	18947.8515625	966.2495727539062
0.528	-0.0	-0.0	-0.0	-0.0	-0.0	-0.0	0.0115252137184143	-1.6242142915725708	-786.0626220703125	-0.0	-0.0	-0.0	-0.0	-0.0	-0.0	219518.859375	18916.63671875	1326.76953125
0.5285	-0.0	-0.0	-0.0	-0.0	-0.0	-0.0	1.3537673950195312	-1.4168422222137451	-787.0332641601562	-0.0	-0.0	-0.0	-0.0	-0.0	-0.0	220391.984375	18808.978515625	1454.140869140625
0.529	-0.0	-0.0	-0.0	-0.0	-0.0	-0.0	2.1829988956451416	-1.8853799104690552	-790.9495239257812	-0.0	-0.0	-0.0	-0.0	-0.0	-0.0	221032.046875	18471.34765625	1596.5218505859375
